<svg height="512pt" viewBox="0 -64 512 512" width="512pt" xmlns="http://www.w3.org/2000/svg"><path d="m79.265625 174.597656h48.203125c8.28125 0 15-6.714844 15-15v-32.132812c0-8.28125-6.71875-15-15-15-8.285156 0-15 6.71875-15 15v17.132812h-18.203125v-50.332031h33.203125c8.28125 0 15-6.714844 15-15s-6.71875-15-15-15h-48.203125c-8.28125 0-15 6.714844-15 15v80.332031c0 8.285156 6.714844 15 15 15zm0 0"/><path d="m175.667969 174.597656c8.28125 0 15-6.714844 15-15v-17.132812h18.199219v17.132812c0 8.285156 6.714843 15 15 15 8.28125 0 15-6.714844 15-15v-80.332031c0-8.285156-6.71875-15-15-15h-48.199219c-8.285157 0-15 6.714844-15 15v80.332031c0 8.285156 6.714843 15 15 15zm33.199219-80.332031v18.199219h-18.199219v-18.199219zm0 0"/><path d="m272.066406 174.597656c8.285156 0 15-6.714844 15-15v-65.332031h10.167969v65.332031c0 8.285156 6.714844 15 15 15 8.28125 0 15-6.714844 15-15v-65.332031h10.164063v65.332031c0 8.285156 6.71875 15 15 15 8.285156 0 15-6.714844 15-15v-80.332031c0-8.285156-6.714844-15-15-15h-80.332032c-8.285156 0-15 6.714844-15 15v80.332031c0 8.285156 6.714844 15 15 15zm0 0"/><path d="m400.601562 174.597656h32.132813c8.285156 0 15-6.714844 15-15 0-8.28125-6.714844-15-15-15h-17.132813v-10.164062h17.132813c8.285156 0 15-6.714844 15-15s-6.714844-15-15-15h-17.132813v-10.167969h17.132813c8.285156 0 15-6.714844 15-15s-6.714844-15-15-15h-32.132813c-8.285156 0-15 6.714844-15 15v80.332031c0 8.285156 6.714844 15 15 15zm0 0"/><path d="m272.066406 319.199219h32.132813c8.285156 0 15-6.714844 15-15 0-8.285157-6.714844-15-15-15h-17.132813v-10.167969h17.132813c8.285156 0 15-6.714844 15-15 0-8.28125-6.714844-15-15-15h-17.132813v-10.164062h17.132813c8.285156 0 15-6.714844 15-15 0-8.285157-6.714844-15-15-15h-32.132813c-8.285156 0-15 6.714843-15 15v80.332031c0 8.285156 6.714844 15 15 15zm0 0"/><path d="m79.265625 319.199219h48.203125c8.28125 0 15-6.714844 15-15v-80.332031c0-8.285157-6.71875-15-15-15h-48.203125c-8.28125 0-15 6.714843-15 15v80.332031c0 8.285156 6.714844 15 15 15zm15-80.332031h18.203125v50.332031h-18.203125zm0 0"/><path d="m187.765625 313.199219c2.835937 3.777343 7.28125 6 12 6 4.722656 0 9.167969-2.222657 12-6l24.101563-32.132813c1.945312-2.597656 3-5.753906 3-9v-48.199218c0-8.285157-6.714844-15-15-15-8.285157 0-15 6.714843-15 15v43.199218l-9.101563 12.132813-9.097656-12.132813v-43.199218c0-8.285157-6.71875-15-15-15-8.285157 0-15 6.714843-15 15v48.199218c0 3.246094 1.050781 6.402344 3 9zm0 0"/><path d="m497 0h-482c-8.285156 0-15 6.714844-15 15v353.46875c0 8.28125 6.714844 15 15 15h482c8.285156 0 15-6.71875 15-15v-353.46875c0-8.285156-6.714844-15-15-15zm-15 353.464844h-452v-323.464844h452zm0 0"/><path d="m430.285156 280.539062c2.128906-1.421874 4.136719-3.066406 5.984375-4.917968 7.390625-7.378906 11.464844-17.199219 11.464844-27.65625 0-21.640625-17.515625-39.097656-39.101563-39.097656h-56.234374c-8.28125 0-15 6.714843-15 15v80.332031c0 8.285156 6.71875 15 15 15 8.285156 0 15-6.714844 15-15v-17.132813h26.988281l27.738281 27.738282c5.859375 5.859374 15.355469 5.855468 21.214844 0 5.855468-5.855469 5.855468-15.355469 0-21.210938zm-62.886718-41.671874h41.234374c4.96875 0 9.101563 4.015624 9.101563 9.101562 0 4.976562-4.03125 9.097656-9.101563 9.097656h-41.234374zm0 0"/></svg>